<svg xmlns="http://www.w3.org/2000/svg" width="73.848" height="52.269" viewBox="0 0 73.848 52.269">
  <path id="Path_19" data-name="Path 19" d="M73,58.326V10.572c-12.167-4.563-22.66-4.41-34.827,0V58.326a48.429,48.429,0,0,1,17.49-3.5A48.28,48.28,0,0,1,73,58.326ZM43.04,24.259a46.86,46.86,0,0,1,25.094,0,1.7,1.7,0,0,1,1.217,1.977,1.648,1.648,0,0,1-1.673,1.217h-.456a43.736,43.736,0,0,0-23.421,0,1.62,1.62,0,0,1-1.977-1.217A1.779,1.779,0,0,1,43.04,24.259Zm.76,19.467a1.642,1.642,0,1,1-.76-3.194,46.86,46.86,0,0,1,25.094,0,1.7,1.7,0,0,1,1.217,1.977,1.648,1.648,0,0,1-1.673,1.217h-.456A43.736,43.736,0,0,0,43.8,43.726ZM0,58.326a48.429,48.429,0,0,1,17.49-3.5,49.064,49.064,0,0,1,17.49,3.5V10.572c-12.167-4.563-22.812-4.563-34.827,0V58.326ZM4.867,24.411a46.86,46.86,0,0,1,25.094,0,1.642,1.642,0,0,1-.76,3.194,43.737,43.737,0,0,0-23.421,0H5.323A1.779,1.779,0,0,1,3.65,26.389,1.62,1.62,0,0,1,4.867,24.411Zm0,16.121a46.86,46.86,0,0,1,25.094,0,1.642,1.642,0,0,1-.76,3.194,43.736,43.736,0,0,0-23.421,0H5.323A1.779,1.779,0,0,1,3.65,42.509,1.62,1.62,0,0,1,4.867,40.532Z" transform="translate(0.348 -6.785)" fill="none" stroke="#fff" stroke-width="1"/>
</svg>
