<svg xmlns="http://www.w3.org/2000/svg" width="61.404" height="65.719" viewBox="0 0 61.404 65.719">
  <path id="Path_20" data-name="Path 20" d="M68.189,18.591l-3.6-5.753a1.413,1.413,0,0,0-1.222-.647,1.6,1.6,0,0,0-1.222.647l-3.6,5.753a1.639,1.639,0,0,0-.216.791V57.494a5.034,5.034,0,0,0,10.067,0V19.382A1.639,1.639,0,0,0,68.189,18.591Zm-4.818-2.229,2.157,3.452V52.461H61.213V19.813Zm0,43.29a2.119,2.119,0,0,1-2.157-2.157V55.337h4.315v2.157A2.119,2.119,0,0,1,63.371,59.652ZM49.708,5H12.315A4.327,4.327,0,0,0,8,9.315V65.4a4.327,4.327,0,0,0,4.315,4.315H49.708A4.327,4.327,0,0,0,54.022,65.4V9.315A4.327,4.327,0,0,0,49.708,5Zm1.438,60.4a1.442,1.442,0,0,1-1.438,1.438H12.315A1.442,1.442,0,0,1,10.876,65.4V9.315a1.442,1.442,0,0,1,1.438-1.438H49.708a1.442,1.442,0,0,1,1.438,1.438ZM22.382,15.067a1.442,1.442,0,0,1,1.438-1.438H38.2a1.438,1.438,0,0,1,0,2.876H23.82A1.442,1.442,0,0,1,22.382,15.067Zm23.011,7.191A1.442,1.442,0,0,1,43.955,23.7H18.067a1.438,1.438,0,1,1,0-2.876H43.955A1.442,1.442,0,0,1,45.393,22.258Zm0,7.191a1.442,1.442,0,0,1-1.438,1.438H18.067a1.438,1.438,0,1,1,0-2.876H43.955A1.442,1.442,0,0,1,45.393,29.449Zm0,7.191a1.442,1.442,0,0,1-1.438,1.438H18.067a1.438,1.438,0,1,1,0-2.876H43.955A1.442,1.442,0,0,1,45.393,36.64Zm0,15.82A1.442,1.442,0,0,1,43.955,53.9H18.067a1.438,1.438,0,1,1,0-2.876H43.955A1.442,1.442,0,0,1,45.393,52.461Zm0,7.191a1.442,1.442,0,0,1-1.438,1.438H18.067a1.438,1.438,0,1,1,0-2.876H43.955A1.442,1.442,0,0,1,45.393,59.652Z" transform="translate(-7.5 -4.5)" fill="none" stroke="#fff" stroke-width="1"/>
</svg>
