<svg xmlns="http://www.w3.org/2000/svg" width="58.212" height="46.74" viewBox="0 0 58.212 46.74">
  <g id="Group_4" data-name="Group 4" transform="translate(0.545 0.509)">
    <path id="Path_23" data-name="Path 23" d="M80.569,121.941l10.19,17.423a2.657,2.657,0,0,1-.873,3.586L76.7,151.3a1.5,1.5,0,0,1-1.245.166h0a1.5,1.5,0,0,0-1.886,1.021l-.19.662a1.5,1.5,0,0,1-.791.939l-23.659,11.4a19.314,19.314,0,0,1-9.889,1.857h0a5.205,5.205,0,0,1-4.466-3.365h0a5.207,5.207,0,0,1,.624-4.825c9.716-7.516,18.213-16.412,21.792-30.865l-.288-1.548a3.445,3.445,0,0,1,2.866-4.034h0a3.445,3.445,0,0,1,2.9.9l3.763,3.565a5.954,5.954,0,0,0,5.961,1.332l3.318-1.095a5.956,5.956,0,0,0,4.075-5.24h0a.532.532,0,0,1,.993-.232Z" transform="translate(-34.241 -121.674)" fill="none" stroke="#d40000" stroke-linecap="round" stroke-linejoin="round" stroke-width="1"/>
    <path id="Path_24" data-name="Path 24" d="M104.588,238.64l-16.6,10.542L84.7,252.8,62.656,263.315a14.137,14.137,0,0,1-9.927.844l-2.97-.844" transform="translate(-49.687 -223.714)" fill="none" stroke="#d40000" stroke-linecap="round" stroke-linejoin="round" stroke-width="1"/>
    <line id="Line_20" data-name="Line 20" x1="44.204" transform="translate(4.796 45.726)" fill="none" stroke="#d40000" stroke-linecap="round" stroke-linejoin="round" stroke-width="1"/>
    <line id="Line_21" data-name="Line 21" x1="4.084" transform="translate(53.084 45.726)" fill="none" stroke="#d40000" stroke-linecap="round" stroke-linejoin="round" stroke-width="1"/>
    <line id="Line_22" data-name="Line 22" x1="7.084" y1="6.828" transform="translate(21.626 10.441)" fill="none" stroke="#d40000" stroke-linecap="round" stroke-linejoin="round" stroke-width="1"/>
    <line id="Line_23" data-name="Line 23" x1="5.283" y1="5.029" transform="translate(19.149 16.518)" fill="none" stroke="#d40000" stroke-linecap="round" stroke-linejoin="round" stroke-width="1"/>
    <line id="Line_24" data-name="Line 24" x1="4.16" y1="3.904" transform="translate(16.193 21.723)" fill="none" stroke="#d40000" stroke-linecap="round" stroke-linejoin="round" stroke-width="1"/>
  </g>
</svg>
