<svg xmlns="http://www.w3.org/2000/svg" width="67.319" height="62.044" viewBox="0 0 67.319 62.044">
  <g id="Social_Group" data-name="Social Group" transform="translate(-1.627 -4.036)">
    <line id="Line_15" data-name="Line 15" y1="9.261" transform="translate(35.308 31.443)" fill="none" stroke="#d40000" stroke-linecap="round" stroke-linejoin="round" stroke-width="1"/>
    <path id="Path_1" data-name="Path 1" d="M22.67,26.024a3.542,3.542,0,0,1,2.221-2.065c1.61-.333,4.641,0,5.23-1.355a6.773,6.773,0,0,0,.344-3.12h0a6.962,6.962,0,0,1-2.443-5.552c0-3.564,2.221-6.462,5.019-6.462s5.019,2.9,5.019,6.462c0,3.242-1.843,5.918-4.264,6.385" transform="translate(2.267 0.322)" fill="none" stroke="#d40000" stroke-linecap="round" stroke-linejoin="round" stroke-width="1"/>
    <path id="Path_2" data-name="Path 2" d="M34.336,18.29h0a6.662,6.662,0,0,0,.333,3.109c.566,1.277,3.331,1.055,4.941,1.31" transform="translate(3.548 1.517)" fill="none" stroke="#d40000" stroke-linecap="round" stroke-linejoin="round" stroke-width="1"/>
    <line id="Line_16" data-name="Line 16" x2="8.028" y2="4.641" transform="translate(35.308 40.704)" fill="none" stroke="#d40000" stroke-linecap="round" stroke-linejoin="round" stroke-width="1"/>
    <line id="Line_17" data-name="Line 17" x1="8.028" y2="4.619" transform="translate(27.28 40.704)" fill="none" stroke="#d40000" stroke-linecap="round" stroke-linejoin="round" stroke-width="1"/>
    <path id="Path_3" data-name="Path 3" d="M33.334,31.443a13.447,13.447,0,1,1,3.964-.588m5.408,29.714a3.564,3.564,0,0,1,2.221-2.076c1.6-.344,4.641,0,5.23-1.388a6.784,6.784,0,0,0,.322-3.2h0A6.984,6.984,0,0,1,48,48.355c0-3.564,2.221-6.474,4.986-6.485s5.03,2.931,5.052,6.485c0,3.242-1.821,5.929-4.231,6.418" transform="translate(1.963 0)" fill="none" stroke="#d40000" stroke-linecap="round" stroke-linejoin="round" stroke-width="1"/>
    <path id="Path_4" data-name="Path 4" d="M57.279,50.517h0a6.6,6.6,0,0,0,.355,3.1c.566,1.277,3.331,1.044,4.941,1.288M43.033,41.956a13.447,13.447,0,1,1-1.443,3.6M4.88,57a3.475,3.475,0,0,1,2.243-2.043c1.61-.333,4.641,0,5.241-1.344a6.662,6.662,0,0,0,.344-3.1h0a7.029,7.029,0,0,1-2.421-5.552c0-3.564,2.276-6.451,5.052-6.44s5.008,2.887,4.986,6.44c0,3.242-1.877,5.918-4.286,6.374" transform="translate(0.303 3.39)" fill="none" stroke="#d40000" stroke-linecap="round" stroke-linejoin="round" stroke-width="1"/>
    <path id="Path_5" data-name="Path 5" d="M18.164,50.525h0a6.662,6.662,0,0,0,.322,3.109c.555,1.266,3.276,1.11,4.93,1.321M27.28,41.942a13.469,13.469,0,1,1-2.554-3.2" transform="translate(0 3.381)" fill="none" stroke="#d40000" stroke-linecap="round" stroke-linejoin="round" stroke-width="1"/>
  </g>
</svg>
